<svg width="13" height="15" viewBox="0 0 13 15" fill="none" xmlns="http://www.w3.org/2000/svg">
<path d="M13 1V15H0V1H2.4375V0H3.25V1H9.75V0H10.5625V1H13ZM0.8125 2V4H12.1875V2H10.5625V3H9.75V2H3.25V3H2.4375V2H0.8125ZM12.1875 14V5H0.8125V14H12.1875ZM8.9375 7V12H8.125V8.20312C8.01074 8.27604 7.87956 8.34375 7.73145 8.40625C7.58333 8.46875 7.44368 8.5 7.3125 8.5V7.5C7.36328 7.5 7.42887 7.48438 7.50928 7.45312C7.58968 7.42188 7.6722 7.38281 7.75684 7.33594C7.84147 7.28906 7.91764 7.23438 7.98535 7.17188C8.05306 7.10938 8.09961 7.05469 8.125 7.00781V7H8.9375ZM6.5 8.5C6.5 8.70312 6.47673 8.88542 6.43018 9.04688C6.38363 9.20833 6.31803 9.35938 6.2334 9.5C6.14876 9.64062 6.05566 9.77344 5.9541 9.89844C5.85254 10.0234 5.74463 10.1432 5.63037 10.2578C5.51611 10.3724 5.4082 10.4922 5.30664 10.6172C5.20508 10.7422 5.10563 10.8698 5.0083 11H6.5V12H4.0625V11.7188C4.0625 11.6198 4.06038 11.5208 4.05615 11.4219C4.05192 11.3229 4.06038 11.224 4.08154 11.125C4.1027 11.026 4.12386 10.9323 4.14502 10.8438C4.19157 10.7031 4.26139 10.5651 4.35449 10.4297C4.44759 10.2943 4.55339 10.1562 4.67188 10.0156C4.79036 9.875 4.90674 9.74219 5.021 9.61719C5.13525 9.49219 5.24316 9.36458 5.34473 9.23438C5.44629 9.10417 5.52881 8.98177 5.59229 8.86719C5.65576 8.7526 5.6875 8.63021 5.6875 8.5C5.6875 8.35938 5.6473 8.24219 5.56689 8.14844C5.48649 8.05469 5.39128 8.00521 5.28125 8C5.18392 8 5.09928 8.03646 5.02734 8.10938C4.9554 8.18229 4.90674 8.27865 4.88135 8.39844L4.08789 8.19531C4.11328 8.02344 4.16195 7.86458 4.23389 7.71875C4.30583 7.57292 4.39893 7.44792 4.51318 7.34375C4.62744 7.23958 4.74805 7.15625 4.875 7.09375C5.00195 7.03125 5.13737 7 5.28125 7C5.45052 7 5.60921 7.03906 5.75732 7.11719C5.90544 7.19531 6.03451 7.30208 6.14453 7.4375C6.25456 7.57292 6.34131 7.73177 6.40479 7.91406C6.46826 8.09635 6.5 8.29167 6.5 8.5Z" fill="#23B8F9"/>
</svg>
