<svg width="25" height="25" viewBox="0 0 25 25" fill="none" xmlns="http://www.w3.org/2000/svg">
<path d="M25 1.66667V25H0V1.66667H4.6875V0H6.25V1.66667H18.75V0H20.3125V1.66667H25ZM1.5625 3.33333V6.66667H23.4375V3.33333H20.3125V5H18.75V3.33333H6.25V5H4.6875V3.33333H1.5625ZM23.4375 23.3333V8.33333H1.5625V23.3333H23.4375ZM17.1875 11.6667V20H15.625V13.6719C15.4053 13.7934 15.153 13.9062 14.8682 14.0104C14.5833 14.1146 14.3148 14.1667 14.0625 14.1667V12.5C14.1602 12.5 14.2863 12.474 14.4409 12.4219C14.5955 12.3698 14.7542 12.3047 14.917 12.2266C15.0798 12.1484 15.2262 12.0573 15.3564 11.9531C15.4867 11.849 15.5762 11.7578 15.625 11.6797V11.6667H17.1875ZM12.5 14.1667C12.5 14.5052 12.4552 14.809 12.3657 15.0781C12.2762 15.3472 12.1501 15.599 11.9873 15.8333C11.8245 16.0677 11.6455 16.2891 11.4502 16.4974C11.2549 16.7057 11.0474 16.9054 10.8276 17.0964C10.6079 17.2873 10.4004 17.487 10.2051 17.6953C10.0098 17.9036 9.81852 18.1163 9.63135 18.3333H12.5V20H7.8125V19.5312C7.8125 19.3663 7.80843 19.2014 7.80029 19.0365C7.79215 18.8715 7.80843 18.7066 7.84912 18.5417C7.88981 18.3767 7.9305 18.2205 7.97119 18.0729C8.06071 17.8385 8.19499 17.6085 8.37402 17.3828C8.55306 17.1571 8.75651 16.9271 8.98438 16.6927C9.21224 16.4583 9.43604 16.237 9.65576 16.0286C9.87549 15.8203 10.083 15.6076 10.2783 15.3906C10.4736 15.1736 10.6323 14.9696 10.7544 14.7786C10.8765 14.5877 10.9375 14.3837 10.9375 14.1667C10.9375 13.9323 10.8602 13.737 10.7056 13.5807C10.5509 13.4245 10.3678 13.342 10.1562 13.3333C9.96908 13.3333 9.80632 13.3941 9.66797 13.5156C9.52962 13.6372 9.43604 13.7977 9.38721 13.9974L7.86133 13.6589C7.91016 13.3724 8.00374 13.1076 8.14209 12.8646C8.28044 12.6215 8.45947 12.4132 8.6792 12.2396C8.89893 12.066 9.13086 11.9271 9.375 11.8229C9.61914 11.7188 9.87956 11.6667 10.1562 11.6667C10.4818 11.6667 10.7869 11.7318 11.0718 11.862C11.3566 11.9922 11.6048 12.1701 11.8164 12.3958C12.028 12.6215 12.1948 12.8863 12.3169 13.1901C12.439 13.4939 12.5 13.8194 12.5 14.1667Z" fill="#A59C9C"/>
</svg>
