<svg width="13" height="14" viewBox="0 0 13 14" fill="none" xmlns="http://www.w3.org/2000/svg">
<path d="M1.41426 12.4444H2.42192L9.33411 4.84167L8.32645 3.73333L1.41426 11.3361V12.4444ZM0 14V10.6944L9.33411 0.447222C9.47553 0.30463 9.63181 0.194445 9.80293 0.116667C9.97406 0.038889 10.1537 0 10.3418 0C10.5303 0 10.713 0.038889 10.8898 0.116667C11.0666 0.194445 11.2198 0.311111 11.3494 0.466667L12.3217 1.55556C12.4632 1.69815 12.5664 1.86667 12.6315 2.06111C12.6965 2.25556 12.7288 2.45 12.7283 2.64444C12.7283 2.85185 12.696 3.04967 12.6315 3.23789C12.5669 3.42611 12.4636 3.59774 12.3217 3.75278L3.0053 14H0ZM8.82144 4.29722L8.32645 3.73333L9.33411 4.84167L8.82144 4.29722Z" fill="#23B8F9"/>
</svg>
