<svg width="13" height="13" viewBox="0 0 13 13" fill="none" xmlns="http://www.w3.org/2000/svg">
<path d="M6.39068 0C2.86686 0 0 2.9159 0 6.5V9.19295C0 9.85855 0.573244 10.4 1.27814 10.4H1.91721C2.0867 10.4 2.24925 10.3315 2.3691 10.2096C2.48894 10.0877 2.55627 9.92239 2.55627 9.75V6.40705C2.55627 6.23466 2.48894 6.06933 2.3691 5.94743C2.24925 5.82553 2.0867 5.75705 1.91721 5.75705H1.33693C1.69225 3.24155 3.82035 1.3 6.39068 1.3C8.96102 1.3 11.0891 3.24155 11.4444 5.75705H10.8642C10.6947 5.75705 10.5321 5.82553 10.4123 5.94743C10.2924 6.06933 10.2251 6.23466 10.2251 6.40705V10.4C10.2251 11.1169 9.65185 11.7 8.94696 11.7H7.66882V11.05H5.11255V13H8.94696C10.3567 13 11.5032 11.8339 11.5032 10.4C12.2081 10.4 12.7814 9.85855 12.7814 9.19295V6.5C12.7814 2.9159 9.91451 0 6.39068 0Z" fill="#23B8F9"/>
</svg>
