<svg width="12" height="14" viewBox="0 0 12 14" fill="none" xmlns="http://www.w3.org/2000/svg">
<path d="M11.5714 1.5H9.96161C9.93319 1.5 9.90594 1.48683 9.88585 1.46339C9.86575 1.43995 9.85446 1.40815 9.85446 1.375V0.9975C9.8539 0.732717 9.76334 0.479005 9.60266 0.292009C9.44197 0.105013 9.22428 -8.27446e-07 8.99732 0L3.00295 0.00812495C2.77622 0.00862028 2.5589 0.113896 2.39855 0.300906C2.23821 0.487916 2.14791 0.741425 2.14741 1.00594V1.375C2.14741 1.40815 2.13612 1.43995 2.11603 1.46339C2.09594 1.48683 2.06868 1.5 2.04027 1.5H0.428571C0.314907 1.5 0.205898 1.55268 0.125526 1.64645C0.0451529 1.74021 0 1.86739 0 2V2.5C0 4.20406 0.803571 6.01406 2.04964 6.41719C2.08649 6.42916 2.11982 6.45267 2.14603 6.48517C2.17224 6.51767 2.19031 6.55792 2.1983 6.60156C2.35286 7.44187 2.8283 8.24219 3.57536 8.90187C4.13545 9.39656 4.80348 9.76125 5.40402 9.91687C5.4515 9.92929 5.49394 9.96019 5.52437 10.0045C5.55479 10.0488 5.57139 10.1039 5.57143 10.1606V12.875C5.57143 12.9082 5.56014 12.9399 5.54005 12.9634C5.51995 12.9868 5.4927 13 5.46429 13H3.8692C3.63857 13 3.44063 13.2069 3.42911 13.4759C3.42632 13.5435 3.43532 13.6111 3.45557 13.6745C3.47582 13.738 3.5069 13.7959 3.54692 13.8449C3.58694 13.8939 3.63507 13.9329 3.68839 13.9596C3.74172 13.9862 3.79913 14 3.85714 14H8.1308C8.36143 14 8.55938 13.7931 8.57089 13.5241C8.57369 13.4565 8.56468 13.3889 8.54443 13.3255C8.52418 13.262 8.4931 13.2041 8.45308 13.1551C8.41306 13.1061 8.36493 13.0671 8.31161 13.0404C8.25828 13.0138 8.20087 13 8.14286 13H6.53571C6.5073 13 6.48005 12.9868 6.45995 12.9634C6.43986 12.9399 6.42857 12.9082 6.42857 12.875V10.1606C6.42861 10.1039 6.44521 10.0488 6.47563 10.0045C6.50606 9.96019 6.5485 9.92929 6.59598 9.91687C7.19652 9.76062 7.86455 9.39656 8.42464 8.90187C9.1717 8.24219 9.64714 7.44187 9.8017 6.60156C9.80969 6.55792 9.82776 6.51767 9.85397 6.48517C9.88018 6.45267 9.91351 6.42916 9.95036 6.41719C11.1964 6.01406 12 4.20406 12 2.5V2C12 1.86739 11.9548 1.74021 11.8745 1.64645C11.7941 1.55268 11.6851 1.5 11.5714 1.5ZM2.14286 5.19438C2.14279 5.21628 2.13779 5.23778 2.12836 5.25672C2.11893 5.27566 2.1054 5.29138 2.08912 5.3023C2.07285 5.31322 2.0544 5.31895 2.03562 5.31893C2.01684 5.31892 1.9984 5.31314 1.98214 5.30219C1.70732 5.11125 1.5067 4.82187 1.38911 4.61812C1.07009 4.06531 0.880179 3.34719 0.859018 2.62969C0.858477 2.61288 0.860849 2.59612 0.865991 2.58041C0.871133 2.5647 0.878939 2.55036 0.888943 2.53825C0.898946 2.52614 0.910941 2.51652 0.924209 2.50994C0.937477 2.50337 0.951746 2.49999 0.966161 2.5H2.03759C2.06601 2.5 2.09326 2.51317 2.11335 2.53661C2.13344 2.56005 2.14473 2.59185 2.14473 2.625C2.1442 3.48281 2.14286 4.46469 2.14286 5.19438ZM10.6106 4.61812C10.493 4.82187 10.2927 5.11125 10.0179 5.30219C10.0016 5.31315 9.98311 5.31893 9.96431 5.31893C9.94552 5.31894 9.92705 5.31318 9.91076 5.30222C9.89448 5.29126 9.88095 5.2755 9.87154 5.25652C9.86213 5.23753 9.85716 5.21599 9.85714 5.19406C9.85714 4.36563 9.85714 3.42437 9.8558 2.625C9.8558 2.59185 9.86709 2.56005 9.88719 2.53661C9.90728 2.51317 9.93453 2.5 9.96295 2.5H11.0344C11.0488 2.49999 11.0631 2.50337 11.0763 2.50994C11.0896 2.51652 11.1016 2.52614 11.1116 2.53825C11.1216 2.55036 11.1294 2.5647 11.1345 2.58041C11.1397 2.59612 11.1421 2.61288 11.1415 2.62969C11.1204 3.34719 10.9299 4.06531 10.6109 4.61812H10.6106Z" fill="#23B8F9"/>
</svg>
